<?xml version="1.0" encoding="utf-8"?>
<!-- Generator: Adobe Illustrator 18.0.0, SVG Export Plug-In . SVG Version: 6.00 Build 0)  -->
<!DOCTYPE svg PUBLIC "-//W3C//DTD SVG 1.1//EN" "http://www.w3.org/Graphics/SVG/1.1/DTD/svg11.dtd">
<svg version="1.1" id="Layer_1" xmlns="http://www.w3.org/2000/svg" xmlns:xlink="http://www.w3.org/1999/xlink" x="0px" y="0px"
	 width="733.6px" height="174.5px" viewBox="0 0 733.6 174.5" enable-background="new 0 0 733.6 174.5" xml:space="preserve">
<path fill="#004587" d="M397.8,130.7h-20.9l-4.2-13.4h-27l-4.2,13.4h-20.7l27.8-76.5H370L397.8,130.7z M367.5,100.4l-8.4-26.2
	l-8.4,26.2H367.5z"/>
<polygon fill="#63C6E9" points="98,81.7 114.4,65.4 130.7,81.7 114.4,98 "/>
<polygon fill="#63C6E9" points="16.3,65.4 32.7,49 49,65.4 32.7,81.7 "/>
<polygon fill="#63C6E9" points="49,32.7 65.4,16.3 81.7,32.7 65.4,49 "/>
<polygon fill="#63C6E9" points="49,65.4 65.4,49 81.7,65.4 65.4,81.7 "/>
<polygon fill="#63C6E9" points="49,98 65.4,81.7 81.7,98 65.4,114.4 "/>
<polygon fill="#63C6E9" points="65.4,81.7 81.7,65.4 98,81.7 81.7,98 "/>
<polygon fill="#004587" points="98,49 114.4,32.7 130.7,49 114.4,65.4 "/>
<polygon fill="#63C6E9" points="49,130.7 65.4,114.4 81.7,130.7 65.4,147 "/>
<polygon fill="#63C6E9" points="65.4,114.4 81.7,98 98.1,114.4 81.7,130.7 "/>
<polygon fill="#63C6E9" points="65.4,147 81.7,130.7 98.1,147 81.7,163.4 "/>
<polygon fill="#63C6E9" points="81.7,130.7 98.1,114.4 114.4,130.7 98.1,147 "/>
<polygon fill="#63C6E9" points="114.4,98 130.7,81.7 147.1,98 130.7,114.4 "/>
<g>
	<defs>
		<rect id="SVGID_1_" width="733.6" height="174.5"/>
	</defs>
	<clipPath id="SVGID_2_">
		<use xlink:href="#SVGID_1_"  overflow="visible"/>
	</clipPath>
	<path clip-path="url(#SVGID_2_)" fill="#004587" d="M34.3,80.1L49,65.4l16.3,16.3L50.7,96.4c-0.9,0.9-0.9,2.4,0,3.3l14.7,14.7
		L49,130.7l-16.3-16.3l14.7-14.7c0.9-0.9,0.9-2.4,0-3.3L34.3,83.3c-0.9-0.9-2.4-0.9-3.3,0L16.3,98L0,81.7l16.3-16.3L31,80.1
		C32,81,33.4,81,34.3,80.1"/>
	<path clip-path="url(#SVGID_2_)" fill="#004587" d="M98.1,16.3L83.3,31c-0.9,0.9-0.9,2.4,0,3.3L98.1,49L81.7,65.4L65.4,49
		l14.7-14.7c0.9-0.9,0.9-2.4,0-3.3L65.4,16.3L81.7,0L98.1,16.3z"/>
	<path clip-path="url(#SVGID_2_)" fill="#004587" d="M114.4,65.4L99.7,80.1c-0.9,0.9-0.9,2.4,0,3.3L114.4,98l-16.3,16.3L81.7,98
		l14.7-14.7c0.9-0.9,0.9-2.4,0-3.3L81.7,65.4L98.1,49L114.4,65.4z"/>
	<path clip-path="url(#SVGID_2_)" fill-rule="evenodd" clip-rule="evenodd" fill="#004587" d="M685.6,130.7l-11.1-22.6
		c7.4-2.9,11.1-8.4,11.1-17.1c0-12.4-9.1-18.5-20-18.5h-27.1v58.2h11.6v-21h11.7l10.4,21H685.6z M673.6,91.2c0,5.1-2.9,7.6-8.3,7.6
		h-15.2v-15h15.2C670.4,83.8,673.6,85.9,673.6,91.2"/>
	<polygon clip-path="url(#SVGID_2_)" fill="#004587" points="216.6,54.1 216.6,72.6 233,72.6 233,130.7 255,130.7 255,72.6 
		271.5,72.6 271.5,54.1 	"/>
	<path clip-path="url(#SVGID_2_)" fill="#004587" d="M275.5,54.1l0,54.6H294c2.5,0,3.4,0.8,3.4,3.4v18.6h21.9v-21.9h-18.5
		c-2.5,0-3.4-0.8-3.4-3.4V54.1H275.5z"/>
	<path clip-path="url(#SVGID_2_)" fill="#004587" d="M228.9,130.7H208l-4.2-13.4h-27l-4.2,13.4H152l27.8-76.5h21.4L228.9,130.7z
		 M198.7,100.4l-8.4-26.2l-8.4,26.2H198.7z"/>
	<polygon clip-path="url(#SVGID_2_)" fill="#004587" points="520.1,83.9 520.1,72.5 478.4,72.5 478.4,130.7 490.1,130.7 
		490.1,106.1 507.6,106.1 507.6,94.8 490.1,94.8 490.1,83.9 	"/>
	<rect x="528.4" y="72.5" clip-path="url(#SVGID_2_)" fill="#004587" width="11.6" height="58.2"/>
	<polygon clip-path="url(#SVGID_2_)" fill="#004587" points="590.9,130.7 590.9,119.2 561.7,119.2 561.7,72.5 550.1,72.5 
		550.1,130.7 	"/>
	<polygon clip-path="url(#SVGID_2_)" fill="#004587" points="631.4,83.9 631.4,72.5 586.3,72.5 586.3,83.9 603,83.9 603,130.7 
		614.7,130.7 614.7,83.9 	"/>
	<rect x="693.1" y="72.5" clip-path="url(#SVGID_2_)" fill="#004587" width="11.6" height="58.2"/>
	<path clip-path="url(#SVGID_2_)" fill-rule="evenodd" clip-rule="evenodd" fill="#747373" d="M404,149.6c0-1.3-1.1-2.3-2.3-2.3
		c-1.3,0-2.3,1.1-2.3,2.3c0,1.3,1.1,2.3,2.3,2.3C402.9,151.9,404,150.9,404,149.6 M403.7,153.2h-4.1v15.6h4.1V153.2z"/>
	<path clip-path="url(#SVGID_2_)" fill-rule="evenodd" clip-rule="evenodd" fill="#747373" d="M435.8,168.8V160
		c0-4.4-1.6-7.1-5.5-7.1c-2.6,0-3.9,0.9-5,2c-1.2-1.4-2.3-2-4.3-2c-1.6,0-2.7,0.6-3.4,1.4v-1h-4.1v15.6h4.1v-8.5
		c0-2.7,0.8-3.5,2.5-3.5c1.7,0,2.5,0.8,2.5,3.6v8.4h4.1v-8.5c0-2.7,0.8-3.5,2.5-3.5c1.7,0,2.5,0.8,2.5,3.6v8.4H435.8z"/>
	<path clip-path="url(#SVGID_2_)" fill-rule="evenodd" clip-rule="evenodd" fill="#747373" d="M458.7,161.2c0-5.8-2.7-8.3-6-8.3
		c-1.5,0-2.5,0.6-3.3,1.3v-1h-4.1v21.3l4.1-2v-4.6c0.7,0.7,1.9,1.2,3.3,1.2C456.5,169.1,458.7,165.8,458.7,161.2 M454.6,161.3
		c0,2.6-0.9,4-2.4,4c-1.2,0-2.1-0.5-2.8-1.3V158c0.6-0.8,1.2-1.3,2.5-1.3C453.5,156.7,454.6,158.1,454.6,161.3"/>
	<path clip-path="url(#SVGID_2_)" fill-rule="evenodd" clip-rule="evenodd" fill="#747373" d="M477.8,154c-0.5-0.6-1.5-1.1-2.9-1.1
		c-1.5,0-2.5,0.6-3.2,1.4v-1h-4.1v15.6h4.1v-8.4c0-2.7,1-3.4,2.6-3.4c0.9,0,1.7,0.4,2.4,1L477.8,154z"/>
	<path clip-path="url(#SVGID_2_)" fill-rule="evenodd" clip-rule="evenodd" fill="#747373" d="M499.3,161c0-4.8-3-8.1-7.1-8.1
		c-4.1,0-7,3.4-7,8.1c0,4.8,3,8.1,7,8.1C496.3,169.1,499.3,165.8,499.3,161 M495.2,161c0,2.2-0.9,4.2-2.9,4.2c-2,0-2.9-1.8-2.9-4.2
		c0-2.4,0.9-4.2,2.9-4.2C494.2,156.8,495.2,158.6,495.2,161"/>
	<path clip-path="url(#SVGID_2_)" fill="#747373" d="M522.3,153.2h-4.4l-2.3,7.2c-0.4,1.2-0.8,2.6-1,3.4c-0.2-0.7-0.6-2.2-1-3.4
		l-2.3-7.2h-4.5l5.6,15.6h4.2L522.3,153.2z"/>
	<path clip-path="url(#SVGID_2_)" fill-rule="evenodd" clip-rule="evenodd" fill="#747373" d="M535.3,149.6c0-1.3-1.1-2.3-2.3-2.3
		c-1.3,0-2.3,1.1-2.3,2.3c0,1.3,1.1,2.3,2.3,2.3C534.2,151.9,535.3,150.9,535.3,149.6 M535,153.2h-4.1v15.6h4.1V153.2z"/>
	<path clip-path="url(#SVGID_2_)" fill-rule="evenodd" clip-rule="evenodd" fill="#747373" d="M558.3,168.8V160
		c0-4.4-1.8-7.1-5.8-7.1c-1.6,0-2.9,0.6-3.6,1.4v-1h-4.1v15.6h4.1v-8.5c0-2.7,1-3.5,2.7-3.5c1.7,0,2.6,0.8,2.6,3.6v8.4H558.3z"/>
	<path clip-path="url(#SVGID_2_)" fill-rule="evenodd" clip-rule="evenodd" fill="#747373" d="M580.4,166.1v-12.9h-4.1v0.9
		c-0.7-0.7-1.9-1.2-3.3-1.2c-3.9,0-6.1,3.3-6.1,7.9c0,5.8,2.7,8.3,6.1,8.3c1.5,0,2.5-0.6,3.3-1.3c0,2.4-0.9,3.2-4.1,3.6l1.5,3.1
		C579.2,173.9,580.4,171.3,580.4,166.1 M576.3,163.9c-0.6,0.8-1.2,1.3-2.5,1.3c-1.6,0-2.7-1.3-2.7-4.5c0-2.6,0.9-4,2.4-4
		c1.2,0,2.1,0.5,2.8,1.3V163.9z"/>
	<path clip-path="url(#SVGID_2_)" fill="#747373" d="M623.7,153.2h-4l-1.4,5.8c-0.3,1.2-0.6,2.8-0.7,3.6c-0.1-0.8-0.5-2.3-0.8-3.6
		l-1.5-5.8h-3.4l-1.5,5.8c-0.3,1.2-0.7,2.8-0.8,3.6c-0.1-0.7-0.5-2.4-0.7-3.6l-1.4-5.8h-4.2l4.5,15.6h3.4l1.5-6.1
		c0.3-1.2,0.7-2.9,0.8-3.7c0.1,0.7,0.5,2.5,0.8,3.7l1.5,6.1h3.4L623.7,153.2z"/>
	<path clip-path="url(#SVGID_2_)" fill-rule="evenodd" clip-rule="evenodd" fill="#747373" d="M644.7,168.8v-10.4
		c0-3.5-2.6-5.5-6.3-5.5c-2.5,0-4,0.5-5.8,1.6l1.6,2.8c1.4-0.8,2.4-1,4.3-1c1.5,0,2.2,0.9,2.2,2v0.8c-0.7-0.3-1.6-0.6-3-0.6
		c-3.5,0-6.3,1.7-6.3,5.2c0,3.8,2.9,5.5,5.8,5.5c1.5,0,2.8-0.6,3.5-1.4v1H644.7z M640.6,164.2c-0.4,0.7-1.5,1.4-2.8,1.4
		c-1.8,0-2.4-1-2.4-2.1c0-1.2,0.8-2,2.4-2c1.5,0,2.1,0.2,2.8,0.7V164.2z"/>
	<path clip-path="url(#SVGID_2_)" fill="#747373" d="M663.5,164c-1,0.9-1.6,1.2-2.3,1.2c-1,0-1.5-0.4-1.5-1.9v-6.3h3.7v-3.9h-3.7
		v-6.1l-4.1,2v4H653v3.9h2.6v7.4c0,2.7,1.6,4.7,4.2,4.7c1.3,0,2.5-0.4,3.2-1L663.5,164z"/>
	<path clip-path="url(#SVGID_2_)" fill-rule="evenodd" clip-rule="evenodd" fill="#747373" d="M685.7,161c0-4.4-2.4-8.1-6.6-8.1
		c-3.9,0-6.9,3.4-6.9,8.1c0,4.9,2.8,8.1,7.3,8.1c2.1,0,4.3-0.9,5.6-2.5l-2.9-2.4c-0.6,0.7-1.5,1.1-2.7,1.1c-1.5,0-3.1-0.8-3.2-2.9
		h9.3C685.7,162,685.7,161.6,685.7,161 M681.7,159.2h-5.3c0.1-1.6,1.1-2.8,2.6-2.8C680.8,156.4,681.6,157.8,681.7,159.2"/>
	<path clip-path="url(#SVGID_2_)" fill-rule="evenodd" clip-rule="evenodd" fill="#747373" d="M704.8,154c-0.5-0.6-1.5-1.1-2.9-1.1
		c-1.5,0-2.5,0.6-3.2,1.4v-1h-4.1v15.6h4.1v-8.4c0-2.7,1-3.4,2.6-3.4c0.9,0,1.7,0.4,2.4,1L704.8,154z"/>
	<path clip-path="url(#SVGID_2_)" fill="#004587" d="M421.1,83.1c-3.4,0-6.2-2.8-6.2-6.2c0-3.4,2.8-6.2,6.2-6.2l34.7,0V54.1h-37.3
		c-12.6,0-22.8,10.2-22.8,22.8s10.2,22.8,22.8,22.8l16,0c4.2,0,7.4,2.7,7.4,6.9c0,4.2-3.2,6.9-7.4,6.9h-34.9v17.1h37.3
		c13.5,0,24-10.5,24-24c0-13.5-10.5-23.6-24-23.6L421.1,83.1z"/>
	<path clip-path="url(#SVGID_2_)" fill="#004587" d="M714.3,55.6c0-5.3,4.3-9.6,9.7-9.6c5.3,0,9.6,4.3,9.6,9.6
		c0,5.3-4.3,9.7-9.6,9.7C718.6,65.3,714.3,60.9,714.3,55.6 M731.8,55.6c0-4.3-3.5-7.8-7.8-7.8c-4.4,0-7.8,3.5-7.8,7.8
		c0,4.4,3.5,7.8,7.8,7.8C728.3,63.5,731.8,60,731.8,55.6 M728.8,60.9h-2.4l-2.3-4.4h-2v4.4h-2V50.5h5c0.9,0,2,0,2.8,0.5
		c0.9,0.6,1.2,1.6,1.2,2.7c0,1.9-1,2.7-2.8,2.8L728.8,60.9z M725.1,54.9c1.2,0,2-0.3,2-1.6c0-1.4-1.5-1.4-2.5-1.4H722v2.9H725.1z"/>
</g>
</svg>
