<?xml version="1.0" encoding="utf-8"?>
<!-- Generator: Adobe Illustrator 25.3.1, SVG Export Plug-In . SVG Version: 6.00 Build 0)  -->
<svg version="1.1" id="Layer_1" xmlns="http://www.w3.org/2000/svg" xmlns:xlink="http://www.w3.org/1999/xlink" x="0px" y="0px"
	 viewBox="0 0 793.92 935.52" style="enable-background:new 0 0 793.92 935.52;" xml:space="preserve">
<style type="text/css">
	.st0{fill:#F26522;}
	.st1{fill:#00AAE3;}
	.st2{fill:#00A651;}
	.st3{font-family:'Calibri-Bold';}
	.st4{font-size:28.3004px;}
	.st5{letter-spacing:-1;}
	.st6{letter-spacing:-2;}
	.st7{letter-spacing:6;}
</style>
<g>
	<g>
		<path class="st0" d="M331.32,310.01c0,0-55.4-39.03-42.26-90.67c12.93-50.8,63.96-52.19,102.29-4.19
			c31.21,39.09,92.75-17.21,19.11-61.51c-72.82-43.81-131.88,12.35-138.63,59.42C265.76,255.42,289.38,306.28,331.32,310.01z"/>
		<path d="M333.13,310.67l-1.85-0.16c-15.74-1.4-29.88-9.48-40.89-23.38c-15.51-19.58-22.81-47.99-19.06-74.15
			c3.98-27.75,24.62-54.93,51.37-67.63c19.11-9.08,49.89-15.08,88.01,7.86c24.43,14.7,37.08,33.04,34.71,50.31
			c-1.59,11.59-9.97,21.1-21.36,24.23c-11.96,3.29-24.33-1.3-33.11-12.29c-20.66-25.87-45.89-38.53-67.51-33.87
			c-16.55,3.57-28.59,17.02-33.9,37.87c-12.91,50.7,41.51,89.75,42.06,90.14L333.13,310.67z M358.28,138.26
			c-14.11,0-25.98,3.63-35.14,7.98c-26.46,12.57-46.88,39.44-50.81,66.87c-3.71,25.9,3.51,54.02,18.85,73.38
			c10.41,13.14,23.65,21,38.39,22.82c-3.9-3-14.89-11.96-24.7-24.98c-11.2-14.88-23.12-38.26-16.28-65.12
			c5.41-21.24,17.72-34.95,34.66-38.6c22-4.74,47.61,8.05,68.51,34.22c8.52,10.67,20.51,15.14,32.06,11.95
			c11-3.03,19.1-12.22,20.63-23.4c2.31-16.86-10.16-34.84-34.24-49.32C390.77,142.36,373.27,138.26,358.28,138.26z"/>
	</g>
	<g>
		<path class="st1" d="M418,155.74c-0.05,0.02-0.01,0.1,0.04,0.09c4.86-1.49,65.66-19.13,100.63,18.09
			c32.41,34.49,9.74,89.87-60.2,85.25c-50.74-3.35-43.87,90.3,36.68,56.92c80.93-33.54,76.14-113.29,43.74-149.31
			C509.59,134.21,459.31,134.51,418,155.74z"/>
		<path d="M463.88,323.86c-15.2,0.11-24.17-6.07-28.89-11.01c-9.43-9.86-11.99-25.38-6.22-37.74c5.29-11.34,16.15-17.34,29.73-16.43
			c33.48,2.21,59.63-9.51,69.95-31.36c8.19-17.35,4.31-37.67-10.14-53.05c-14.52-15.46-35.13-23.33-61.25-23.4
			c-19.85-0.05-35.87,4.53-38.88,5.45l-0.44,0.13l-0.4-0.88l0.43-0.26c37.94-19.5,90.22-23.61,121.49,11.15
			c18.49,20.55,26.26,52.27,19.8,80.8c-4.89,21.6-19.92,51.15-63.72,69.3C482.7,321.8,472.33,323.8,463.88,323.86z M455.59,259.59
			c-11.83,0.09-21.18,5.79-25.92,15.94c-5.6,12-3.12,27.07,6.04,36.63c7.17,7.49,24.41,17.91,59.24,3.48
			c43.41-17.99,58.29-47.24,63.13-68.6c6.39-28.23-1.29-59.6-19.57-79.91c-29.77-33.09-78.86-30.51-116.02-13.03
			c6.76-1.69,19.56-4.26,34.57-4.23c26.4,0.07,47.25,8.05,61.97,23.72c14.74,15.68,18.69,36.43,10.32,54.16
			c-10.5,22.24-37.02,34.18-70.92,31.93C457.47,259.61,456.53,259.58,455.59,259.59z"/>
	</g>
	<g>
		<path class="st2" d="M517.99,306.12c0.04-0.38-0.6-0.43-0.72-0.06c-3.93,12.13-32.81,93.77-94,79.16
			c-45.93-10.97-57.23-60.02-10.52-98.75c39.15-32.46-27.15-95.13-67.15-17.65c-39.55,76.61,23.98,130.96,71.6,139.9
			C463.06,417.34,510.96,381.26,517.99,306.12z"/>
		<path d="M433.34,410.41c-5.38,0.21-10.82-0.18-16.23-1.2c-26.39-4.96-60.09-24.46-75.91-56.86
			c-12.49-25.58-11.12-54.54,3.97-83.76c13.06-25.31,31.12-38.9,49.56-37.29c13.46,1.17,25.17,10.49,29.13,23.17
			c3.7,11.84-0.23,23.64-10.78,32.39c-23.05,19.12-33.49,42-28.65,62.79c4.04,17.35,18.25,30.14,38.96,35.09
			c25.54,6.1,48.41-3.78,67.96-29.37c15.18-19.87,23.32-42.88,25.45-49.46c0.14-0.42,0.59-0.67,1.05-0.58
			c0.42,0.09,0.68,0.43,0.64,0.84l0,0c-3.67,39.2-18.9,70.74-42.89,88.82C462.9,404.56,448.31,409.82,433.34,410.41z M390.51,232.19
			c-16.56,0.65-32.57,13.84-44.46,36.86c-14.93,28.93-16.3,57.58-3.96,82.86c15.67,32.09,49.06,51.41,75.2,56.32
			c20.17,3.79,40.66-1.2,57.7-14.04c23.5-17.71,38.52-48.51,42.37-86.82c-2.63,7.85-10.74,29.64-25.22,48.6
			c-19.81,25.93-43.03,35.94-68.98,29.74c-21.1-5.04-35.57-18.1-39.71-35.84c-4.93-21.17,5.63-44.42,28.99-63.79
			c10.22-8.47,14.03-19.89,10.46-31.32c-3.84-12.31-15.2-21.34-28.26-22.48C393.26,232.17,391.89,232.14,390.51,232.19z
			 M517.5,306.07C517.5,306.07,517.5,306.07,517.5,306.07L517.5,306.07z"/>
	</g>
</g>
<g>
	<defs>
		<line id="SVGID_1_" x1="213.3" y1="179.99" x2="508.74" y2="179.99"/>
	</defs>
	<clipPath id="SVGID_2_">
		<use xlink:href="#SVGID_1_"  style="overflow:visible;"/>
	</clipPath>
</g>
<g>
	<text transform="matrix(1 0 0 1 188.5144 837.411)"><tspan x="0" y="0" class="st1 st3 st4">INN</tspan><tspan x="44.83" y="0" class="st1 st3 st4">O</tspan><tspan x="63.51" y="0" class="st1 st3 st4 st5">V</tspan><tspan x="78.78" y="0" class="st1 st3 st4 st6">A</tspan><tspan x="93.72" y="0" class="st1 st3 st4">TIV</tspan><tspan x="132.01" y="0" class="st1 st3 st4 st7">E</tspan><tspan x="152.21" y="0" class="st1 st3 st4 st5">W</tspan><tspan x="176.55" y="0" class="st1 st3 st4 st6">A</tspan><tspan x="191.5" y="0" class="st1 st3 st4">TE</tspan><tspan x="219.31" y="0" class="st1 st3 st4 st7">R</tspan><tspan x="241.64" y="0" class="st1 st3 st4">TR</tspan><tspan x="271.59" y="0" class="st1 st3 st4">E</tspan><tspan x="285.05" y="0" class="st1 st3 st4 st6">A</tspan><tspan x="299.99" y="0" class="st1 st3 st4">TMEN</tspan><tspan x="371.19" y="0" class="st1 st3 st4 st7">T</tspan><tspan x="391.59" y="0" class="st1 st3 st4">SO</tspan><tspan x="424.11" y="0" class="st1 st3 st4">L</tspan><tspan x="435.4" y="0" class="st1 st3 st4">UTIONS</tspan></text>
	<g>
		<g>
			<path class="st0" d="M80.74,803.9c0,0-19.11-13.46-14.58-31.28c4.46-17.52,22.06-18,35.29-1.45
				c10.77,13.48,31.99-5.94,6.59-21.22c-25.12-15.11-45.49,4.26-47.82,20.5C58.13,785.07,66.28,802.62,80.74,803.9z"/>
			<path d="M81.37,804.13l-0.64-0.06c-5.43-0.48-10.31-3.27-14.1-8.07c-5.35-6.75-7.87-16.55-6.57-25.58
				c1.37-9.57,8.49-18.95,17.72-23.33c6.59-3.13,17.21-5.2,30.36,2.71c8.43,5.07,12.79,11.4,11.97,17.36
				c-0.55,4-3.44,7.28-7.37,8.36c-4.12,1.14-8.39-0.45-11.42-4.24c-7.13-8.92-15.83-13.29-23.29-11.68
				c-5.71,1.23-9.86,5.87-11.69,13.06c-4.45,17.49,14.32,30.96,14.51,31.09L81.37,804.13z M90.04,744.66
				c-4.87,0-8.96,1.25-12.12,2.75c-9.13,4.33-16.17,13.6-17.53,23.07c-1.28,8.93,1.21,18.63,6.5,25.31
				c3.59,4.53,8.16,7.25,13.24,7.87c-1.35-1.03-5.14-4.12-8.52-8.62c-3.86-5.13-7.98-13.2-5.62-22.46
				c1.87-7.33,6.11-12.06,11.96-13.32c7.59-1.64,16.42,2.78,23.63,11.8c2.94,3.68,7.07,5.22,11.06,4.12
				c3.79-1.04,6.59-4.21,7.12-8.07c0.8-5.82-3.51-12.02-11.81-17.01C101.25,746.07,95.21,744.66,90.04,744.66z"/>
		</g>
		<g>
			<path class="st1" d="M110.64,750.69c-0.02,0.01,0,0.04,0.01,0.03c1.68-0.51,22.65-6.6,34.71,6.24c11.18,11.9,3.36,31-20.77,29.41
				c-17.5-1.16-15.13,31.15,12.65,19.64c27.92-11.57,26.27-39.08,15.09-51.51C142.24,743.26,124.89,743.36,110.64,750.69z"/>
			<path d="M126.47,808.68c-5.24,0.04-8.34-2.09-9.97-3.8c-3.25-3.4-4.14-8.75-2.15-13.02c1.83-3.91,5.57-5.98,10.25-5.67
				c11.55,0.76,20.57-3.28,24.13-10.82c2.83-5.98,1.49-13-3.5-18.3c-5.01-5.33-12.12-8.05-21.13-8.07
				c-6.85-0.02-12.37,1.56-13.41,1.88l-0.15,0.05l-0.14-0.3l0.15-0.09c13.09-6.73,31.12-8.15,41.91,3.85
				c6.38,7.09,9.06,18.03,6.83,27.87c-1.69,7.45-6.87,17.64-21.98,23.91C132.96,807.97,129.39,808.66,126.47,808.68z M123.61,786.51
				c-4.08,0.03-7.31,2-8.94,5.5c-1.93,4.14-1.08,9.34,2.08,12.64c2.47,2.59,8.42,6.18,20.43,1.2c14.98-6.21,20.11-16.29,21.78-23.66
				c2.2-9.74-0.44-20.56-6.75-27.57c-10.27-11.41-27.2-10.53-40.02-4.5c2.33-0.58,6.75-1.47,11.92-1.46
				c9.11,0.03,16.3,2.78,21.38,8.18c5.08,5.41,6.45,12.57,3.56,18.68c-3.62,7.67-12.77,11.79-24.46,11.02
				C124.26,786.52,123.93,786.51,123.61,786.51z"/>
		</g>
		<g>
			<path class="st2" d="M145.14,802.56c0.01-0.13-0.21-0.15-0.25-0.02c-1.36,4.19-11.32,32.35-32.42,27.31
				c-15.84-3.78-19.74-20.7-3.63-34.06c13.5-11.2-9.37-32.82-23.16-6.09c-13.64,26.43,8.27,45.17,24.7,48.26
				C126.19,840.93,142.71,828.48,145.14,802.56z"/>
			<path d="M115.94,838.54c-1.86,0.07-3.73-0.06-5.6-0.41c-9.1-1.71-20.73-8.44-26.19-19.62c-4.31-8.82-3.84-18.81,1.37-28.89
				c4.51-8.73,10.74-13.42,17.1-12.87c4.64,0.4,8.68,3.62,10.05,7.99c1.28,4.08-0.08,8.16-3.72,11.17
				c-7.95,6.59-11.55,14.49-9.88,21.66c1.4,5.99,6.29,10.4,13.44,12.1c8.81,2.1,16.7-1.31,23.44-10.13
				c5.24-6.85,8.04-14.79,8.78-17.06c0.05-0.15,0.2-0.23,0.36-0.2c0.14,0.03,0.24,0.15,0.22,0.29h0
				c-1.27,13.52-6.52,24.4-14.8,30.64C126.13,836.52,121.1,838.33,115.94,838.54z M101.16,777.06c-5.71,0.22-11.24,4.77-15.34,12.71
				c-5.15,9.98-5.62,19.86-1.36,28.58c5.41,11.07,16.92,17.73,25.94,19.43c6.96,1.31,14.03-0.41,19.9-4.84
				c8.11-6.11,13.29-16.73,14.62-29.95c-0.91,2.71-3.7,10.23-8.7,16.76c-6.84,8.94-14.84,12.4-23.8,10.26
				c-7.28-1.74-12.27-6.24-13.7-12.36c-1.7-7.3,1.94-15.32,10-22c3.52-2.92,4.84-6.86,3.61-10.8c-1.33-4.24-5.24-7.36-9.75-7.75
				C102.11,777.05,101.64,777.04,101.16,777.06z M144.97,802.54C144.97,802.54,144.97,802.54,144.97,802.54L144.97,802.54z"/>
		</g>
	</g>
	<g>
		<g>
			<path class="st1" d="M694.97,745.78H684.5l-18.9,48.85h10.47l3.93-11.05h19.48l4.36,11.05h10.61L694.97,745.78z M683.05,775.3
				l6.54-18.18l6.83,18.18H683.05z"/>
			<path class="st1" d="M648.46,784.52c-1.88,1.66-4.14,2.5-6.76,2.5c-3.55,0-6.43-1.31-8.65-3.93c-2.22-2.62-3.33-7.01-3.33-13.18
				c0-5.81,1.13-10.02,3.38-12.61c2.25-2.6,5.19-3.89,8.8-3.89c2.62,0,4.84,0.73,6.67,2.2c1.83,1.46,3.03,3.46,3.61,5.99l9.75-2.33
				c-1.11-3.91-2.77-6.9-4.99-8.99c-3.73-3.53-8.58-5.29-14.54-5.29c-6.83,0-12.35,2.25-16.54,6.74c-4.19,4.49-6.29,10.8-6.29,18.92
				c0,7.68,2.08,13.73,6.26,18.15c4.17,4.43,9.5,6.64,15.97,6.64c5.24,0,9.56-1.29,12.96-3.88c3.41-2.58,5.84-6.54,7.31-11.86
				l-9.55-3.03C651.7,780.23,650.34,782.85,648.46,784.52z"/>
			<rect x="602.06" y="745.81" class="st1" width="9.85" height="48.79"/>
			<path class="st1" d="M585.48,777.19c-1.45-1.45-3.2-2.91-5.24-4.07c4.22-0.73,7.42-2.18,9.6-4.51c2.18-2.47,3.2-5.53,3.2-9.16
				c0-2.91-0.73-5.38-2.04-7.71c-1.45-2.18-3.34-3.78-5.67-4.65c-2.47-0.87-6.25-1.31-11.49-1.31h-20.65v48.85h9.89v-20.36h1.89
				c2.33,0,3.93,0.15,4.94,0.44c1.16,0.44,2.03,1.16,3.05,2.04c0.87,1.02,2.62,3.49,5.09,7.27l7.12,10.61h11.78l-5.96-9.6
				C588.68,781.26,586.79,778.64,585.48,777.19z M570.36,766.43h-7.27v-12.36h7.56c4.07,0,6.4,0,7.27,0.15
				c1.6,0.29,2.76,0.87,3.64,1.89c0.87,1.02,1.31,2.33,1.31,4.07c0,1.45-0.29,2.62-0.87,3.63c-0.73,1.02-1.6,1.6-2.76,2.04
				C577.92,766.28,575.02,766.43,570.36,766.43z"/>
			<polygon class="st1" points="511.58,794.6 521.43,794.6 521.43,773.87 541.79,773.87 541.79,765.61 521.43,765.61 521.43,754.06 
				545.02,754.06 545.02,745.81 511.58,745.81 			"/>
			<path class="st1" d="M476.29,745.78l-18.9,48.85h10.32l4.07-11.05h19.48l4.36,11.05h10.61l-19.48-48.85H476.29z M474.83,775.3
				l6.54-18.18l6.83,18.18H474.83z"/>
			<path class="st1" d="M413.19,745.78l-18.9,48.85h10.47l3.93-11.05h19.48l4.36,11.05h10.61l-19.48-48.85H413.19z M411.73,775.3
				l6.54-18.18l6.83,18.18H411.73z"/>
			<polygon class="st1" points="388.01,745.81 380.52,779.89 371.97,745.81 360.25,745.81 351.33,779.32 343.98,745.81 
				333.89,745.81 345.54,794.6 356.23,794.6 365.91,758.12 375.63,794.6 386.08,794.6 397.93,745.81 			"/>
			<path class="st1" d="M322.89,777.19c-1.31-1.45-3.05-2.91-5.24-4.07c4.36-0.73,7.56-2.18,9.74-4.51c2.03-2.47,3.2-5.53,3.2-9.16
				c0-2.91-0.73-5.38-2.18-7.71c-1.45-2.18-3.34-3.78-5.67-4.65c-2.33-0.87-6.11-1.31-11.34-1.31h-20.79v48.85h9.89v-20.36h2.04
				c2.18,0,3.93,0.15,4.94,0.44c1.02,0.44,2.04,1.16,2.91,2.04c1.02,1.02,2.76,3.49,5.24,7.27l7.12,10.61h11.78l-5.96-9.6
				C326.24,781.26,324.35,778.64,322.89,777.19z M307.77,766.43h-7.27v-12.36h7.71c3.93,0,6.4,0,7.12,0.15
				c1.6,0.29,2.91,0.87,3.78,1.89c0.87,1.02,1.31,2.33,1.31,4.07c0,1.45-0.29,2.62-1.02,3.63c-0.58,1.02-1.6,1.6-2.76,2.04
				C315.48,766.28,312.57,766.43,307.77,766.43z"/>
			<path class="st1" d="M259.21,744.91c-3.93,0-7.42,0.73-10.47,2.04c-2.33,0.87-4.36,2.33-6.4,4.36c-1.89,2.04-3.34,4.22-4.51,6.69
				c-1.45,3.34-2.18,7.56-2.18,12.51c0,7.71,2.18,13.81,6.4,18.32c4.22,4.36,10.03,6.54,17.3,6.54c7.13,0,12.94-2.18,17.16-6.54
				c4.36-4.51,6.4-10.61,6.4-18.61c0-7.85-2.18-14.1-6.4-18.61C272.15,747.24,266.33,744.91,259.21,744.91z M268.95,782.71
				c-2.47,2.91-5.67,4.36-9.6,4.36c-3.93,0-7.27-1.45-9.74-4.36c-2.62-2.76-3.78-6.98-3.78-12.5c0-5.67,1.16-9.89,3.63-12.65
				c2.47-2.76,5.82-4.22,9.89-4.22c4.07,0,7.27,1.45,9.74,4.22c2.47,2.76,3.64,6.83,3.64,12.5
				C272.73,775.74,271.57,779.95,268.95,782.71z"/>
			<polygon class="st1" points="218.05,778.39 198.08,745.81 188.49,745.81 188.49,794.6 197.65,794.6 197.65,762.78 217.32,794.6 
				227.2,794.6 227.2,745.81 218.05,745.81 			"/>
		</g>
	</g>
</g>
</svg>
