<?xml version="1.0" encoding="UTF-8" standalone="no"?><!DOCTYPE svg PUBLIC "-//W3C//DTD SVG 1.1//EN" "http://www.w3.org/Graphics/SVG/1.1/DTD/svg11.dtd"><svg width="100%" height="100%" viewBox="0 0 2500 2500" version="1.1" xmlns="http://www.w3.org/2000/svg" xmlns:xlink="http://www.w3.org/1999/xlink" xml:space="preserve" xmlns:serif="http://www.serif.com/" style="fill-rule:evenodd;clip-rule:evenodd;stroke-linejoin:round;stroke-miterlimit:2;"><g><g><path d="M551.716,1551.2c0,0 -457.747,-325.233 -349.177,-755.544c106.835,-423.311 528.474,-434.894 845.179,-34.915c257.874,325.733 766.353,-143.409 157.897,-512.556c-601.68,-365.064 -1089.67,102.911 -1145.44,495.141c-50.153,352.981 145.009,776.792 491.541,807.874Z" style="fill:#f26522;fill-rule:nonzero;"/><path d="M566.671,1556.7l-15.286,-1.334c-130.053,-11.666 -246.885,-78.995 -337.856,-194.823c-128.153,-163.158 -188.47,-399.895 -157.485,-617.884c32.885,-231.238 203.425,-457.726 424.448,-563.554c157.898,-75.663 412.22,-125.66 727.189,65.497c201.855,122.493 306.376,275.319 286.794,419.228c-13.138,96.578 -82.378,175.824 -176.489,201.906c-98.82,27.415 -201.028,-10.833 -273.573,-102.411c-170.705,-215.573 -379.17,-321.067 -557.806,-282.236c-136.746,29.749 -236.227,141.826 -280.101,315.567c-106.67,422.478 342.979,747.878 347.523,751.128l12.642,8.916Zm207.804,-1436.67c-116.585,0 -214.662,30.248 -290.347,66.496c-218.628,104.745 -387.349,328.65 -419.821,557.221c-30.654,215.822 29.001,450.143 155.749,611.468c86.013,109.495 195.41,174.991 317.2,190.157c-32.224,-24.999 -123.03,-99.661 -204.085,-208.156c-92.541,-123.993 -191.031,-318.816 -134.515,-542.638c44.701,-176.991 146.413,-291.235 286.381,-321.65c181.776,-39.498 393.381,67.08 566.068,285.152c70.397,88.912 169.466,126.16 264.898,99.578c90.889,-25.249 157.815,-101.828 170.457,-194.99c19.087,-140.493 -83.948,-290.318 -282.91,-410.978c-160.625,-97.495 -305.22,-131.66 -429.075,-131.66Z" style="fill-rule:nonzero;"/></g><g><path d="M1267.91,265.688c-0.413,0.167 -0.082,0.833 0.331,0.75c40.156,-12.416 542.52,-159.408 831.462,150.742c267.79,287.402 80.477,748.877 -497.407,710.38c-419.242,-27.916 -362.479,752.46 303.071,474.308c668.69,-279.485 629.112,-944.034 361.405,-1244.18c-242.093,-271.402 -657.535,-268.903 -998.862,-91.995Z" style="fill:#00aae3;fill-rule:nonzero;"/><path d="M1647,1666.62c-125.591,0.916 -199.706,-50.581 -238.706,-91.746c-77.916,-82.162 -99.068,-211.488 -51.393,-314.483c43.709,-94.495 133.44,-144.493 245.646,-136.91c276.631,18.416 492.697,-79.245 577.967,-261.319c67.67,-144.576 35.612,-313.901 -83.783,-442.06c-119.972,-128.827 -290.264,-194.407 -506.082,-194.99c-164.012,-0.417 -296.378,37.748 -321.249,45.414l-3.635,1.083l-3.305,-7.333l3.553,-2.166c313.482,-162.492 745.449,-196.74 1003.82,92.912c152.775,171.241 216.975,435.56 163.599,673.298c-40.404,179.99 -164.59,426.227 -526.491,577.469c-104.439,43.665 -190.121,60.331 -259.94,60.831Zm-68.497,-535.556c-97.746,0.75 -175.001,48.248 -214.166,132.827c-46.27,99.994 -25.779,225.571 49.906,305.234c59.243,62.413 201.69,149.242 489.475,28.998c358.678,-149.909 481.625,-393.646 521.616,-571.637c52.798,-235.237 -10.659,-496.64 -161.699,-665.881c-245.976,-275.736 -651.586,-254.237 -958.623,-108.578c55.855,-14.083 161.616,-35.498 285.637,-35.248c218.132,0.583 390.406,67.08 512.031,197.656c121.791,130.66 154.428,303.568 85.27,451.31c-86.757,185.324 -305.88,284.818 -585.981,266.069c-7.932,-0.583 -15.699,-0.833 -23.466,-0.75Z" style="fill-rule:nonzero;"/></g><g><path d="M2094.09,1518.79c0.331,-3.166 -4.957,-3.583 -5.949,-0.5c-32.472,101.078 -271.095,781.376 -776.681,659.632c-379.5,-91.412 -472.867,-500.14 -86.922,-822.873c323.479,-270.486 -224.329,-792.709 -554.832,-147.076c-326.784,638.383 198.137,1091.28 591.6,1165.77c378.921,71.83 774.699,-228.821 832.784,-854.955Z" style="fill:#00a651;fill-rule:nonzero;"/><path d="M1394.66,2387.83c-44.453,1.75 -89.401,-1.5 -134.102,-10c-218.049,-41.331 -496.497,-203.822 -627.211,-473.808c-103.2,-213.156 -91.88,-454.476 32.802,-697.964c107.909,-210.905 257.131,-324.149 409.493,-310.733c111.214,9.749 207.969,87.412 240.689,193.073c30.571,98.661 -1.901,196.99 -89.071,269.902c-190.452,159.325 -276.713,349.982 -236.722,523.223c33.38,144.576 150.792,251.154 321.909,292.401c211.026,50.831 399.991,-31.498 561.525,-244.737c125.425,-165.574 192.683,-357.314 210.282,-412.145c1.157,-3.5 4.875,-5.583 8.676,-4.833c3.47,0.75 5.618,3.583 5.288,7c-30.324,326.649 -156.163,589.469 -354.382,740.128c-104.935,79.745 -225.485,123.577 -349.176,128.493Zm-353.886,-1485.09c-136.828,5.416 -269.112,115.327 -367.354,307.151c-123.36,241.07 -134.68,479.808 -32.719,690.463c129.474,267.403 405.361,428.395 621.345,469.309c166.656,31.582 335.956,-9.999 476.75,-116.994c194.17,-147.575 318.274,-404.229 350.085,-723.462c-21.731,65.413 -88.74,246.987 -208.382,404.979c-163.681,216.072 -355.538,299.484 -569.952,247.82c-174.34,-41.997 -293.9,-150.825 -328.107,-298.651c-40.734,-176.407 46.519,-370.147 239.532,-531.555c84.444,-70.58 115.924,-165.742 86.427,-260.987c-31.729,-102.578 -125.591,-177.824 -233.5,-187.323c-11.403,-0.917 -22.723,-1.167 -34.125,-0.75Zm1049.26,615.634l0,0Z" style="fill-rule:nonzero;"/></g></g></svg>